<svg width="308" height="627" viewBox="0 0 308 627" fill="none" xmlns="http://www.w3.org/2000/svg" xmlns:xlink="http://www.w3.org/1999/xlink">
<mask id="mask0_31_7451" style="mask-type:alpha" maskUnits="userSpaceOnUse" x="13" y="12" width="282" height="603">
<path fill-rule="evenodd" clip-rule="evenodd" d="M57.7503 12.0577C33.3865 12.0577 13.6357 31.8519 13.6357 56.2692V570.731C13.6357 595.148 33.3865 614.942 57.7503 614.942H250.25C274.614 614.942 294.365 595.148 294.365 570.731V56.2692C294.365 31.8519 274.614 12.0577 250.25 12.0577H57.7503Z" fill="black"/>
</mask>
<g mask="url(#mask0_31_7451)">
<rect width="280.729" height="602.885" transform="translate(13.6357 12.0577)" fill="url(#pattern0)"/>
<path d="M13.6357 12.0577H294.365V614.942H13.6357V12.0577Z" fill="#DBEAFE"/>
<path d="M39.3027 430.862C39.3027 421.982 46.4848 414.785 55.3444 414.785H252.657C261.516 414.785 268.699 421.982 268.699 430.862V556.262C268.699 565.141 261.516 572.339 252.657 572.339H55.3444C46.4848 572.339 39.3027 565.141 39.3027 556.262V430.862Z" fill="white"/>
<mask id="mask1_31_7451" style="mask-type:alpha" maskUnits="userSpaceOnUse" x="39" y="414" width="230" height="159">
<path d="M39.3027 430.862C39.3027 421.982 46.4848 414.785 55.3444 414.785H252.657C261.516 414.785 268.699 421.982 268.699 430.862V556.262C268.699 565.141 261.516 572.339 252.657 572.339H55.3444C46.4848 572.339 39.3027 565.141 39.3027 556.262V430.862Z" fill="white"/>
</mask>
<g mask="url(#mask1_31_7451)">
<path d="M211.751 467.437C211.751 476.094 204.748 483.112 196.11 483.112C187.472 483.112 180.47 476.094 180.47 467.437C180.47 458.779 187.472 451.762 196.11 451.762C204.748 451.762 211.751 458.779 211.751 467.437Z" fill="#FACC15"/>
<path d="M158.813 444.929C158.813 481.111 129.546 510.442 93.443 510.442C57.3403 510.442 28.0732 481.111 28.0732 444.929C28.0732 408.747 57.3403 379.415 93.443 379.415C129.546 379.415 158.813 408.747 158.813 444.929Z" fill="white"/>
<path fill-rule="evenodd" clip-rule="evenodd" d="M93.443 502.404C125.116 502.404 150.792 476.671 150.792 444.929C150.792 413.186 125.116 387.454 93.443 387.454C61.7701 387.454 36.0941 413.186 36.0941 444.929C36.0941 476.671 61.7701 502.404 93.443 502.404ZM93.443 510.442C129.546 510.442 158.813 481.111 158.813 444.929C158.813 408.747 129.546 379.415 93.443 379.415C57.3403 379.415 28.0732 408.747 28.0732 444.929C28.0732 481.111 57.3403 510.442 93.443 510.442Z" fill="#DBEAFE"/>
</g>
<path d="M268.698 592.435L127.532 592.435L268.698 457.388L268.698 592.435Z" fill="#BFDBFE"/>
<path d="M39.3027 384.238C39.3027 381.575 41.4574 379.415 44.1152 379.415H159.615C162.273 379.415 164.428 381.575 164.428 384.238C164.428 386.902 162.273 389.062 159.615 389.062H44.1152C41.4574 389.062 39.3027 386.902 39.3027 384.238Z" fill="white"/>
<mask id="path-10-inside-1_31_7451" fill="white">
<path d="M13.6357 537.773H294.365V614.942H13.6357V537.773Z"/>
</mask>
<path d="M13.6357 537.773H294.365V614.942H13.6357V537.773Z" fill="#DBEAFE"/>
<path d="M13.6357 540.773H294.365V534.773H13.6357V540.773Z" fill="white" mask="url(#path-10-inside-1_31_7451)"/>
<path fill-rule="evenodd" clip-rule="evenodd" d="M52.5851 560.684C53.1547 560.706 53.6302 561.127 53.7239 561.69L57.659 585.353L61.0053 573.615C61.1502 573.107 61.6086 572.752 62.136 572.741C62.6633 572.729 63.1367 573.063 63.3035 573.565L65.4355 579.975H69.3809C70.0453 579.975 70.584 580.515 70.584 581.181C70.584 581.847 70.0453 582.387 69.3809 582.387H64.5684C64.0505 582.387 63.5907 582.054 63.427 581.562L62.2505 578.025L58.5064 591.158C58.3519 591.7 57.8432 592.063 57.2816 592.031C56.72 591.999 56.2553 591.581 56.1629 591.025L52.3013 567.805L48.8918 581.473C48.7579 582.01 48.2767 582.387 47.7246 582.387H42.9121C42.2476 582.387 41.709 581.847 41.709 581.181C41.709 580.515 42.2476 579.975 42.9121 579.975H46.7852L51.3699 561.596C51.5082 561.042 52.0155 560.661 52.5851 560.684Z" fill="white"/>
<path fill-rule="evenodd" clip-rule="evenodd" d="M71.7871 579.975C71.1226 579.975 70.584 580.515 70.584 581.181C70.584 581.847 71.1226 582.387 71.7871 582.387C72.4516 582.387 72.9902 581.847 72.9902 581.181C72.9902 580.515 72.4516 579.975 71.7871 579.975ZM68.1777 581.181C68.1777 579.183 69.7937 577.563 71.7871 577.563C73.7805 577.563 75.3965 579.183 75.3965 581.181C75.3965 583.179 73.7805 584.798 71.7871 584.798C69.7937 584.798 68.1777 583.179 68.1777 581.181Z" fill="white"/>
<path fill-rule="evenodd" clip-rule="evenodd" d="M144.144 562.881C146.284 561.448 148.801 560.683 151.375 560.683V561.888L151.375 560.683C154.827 560.683 158.137 562.057 160.578 564.503C163.019 566.95 164.39 570.267 164.39 573.727V573.727C164.39 576.307 163.627 578.829 162.197 580.974C160.767 583.119 158.734 584.791 156.356 585.778C153.977 586.765 151.361 587.024 148.836 586.52C146.311 586.017 143.992 584.775 142.172 582.95C140.351 581.126 139.112 578.802 138.609 576.272C138.107 573.741 138.365 571.119 139.35 568.735C140.335 566.352 142.003 564.314 144.144 562.881ZM151.375 563.094C154.189 563.094 156.887 564.215 158.877 566.209C160.866 568.203 161.984 570.907 161.984 573.727M151.375 563.094C149.277 563.094 147.225 563.718 145.481 564.886C143.736 566.054 142.376 567.715 141.573 569.658C140.77 571.601 140.56 573.739 140.969 575.801C141.379 577.864 142.389 579.758 143.873 581.245C145.357 582.732 147.247 583.745 149.305 584.155C151.363 584.565 153.496 584.355 155.435 583.55C157.374 582.745 159.03 581.383 160.196 579.634C161.362 577.886 161.984 575.83 161.984 573.727" fill="white"/>
<path fill-rule="evenodd" clip-rule="evenodd" d="M159.337 581.707C159.807 581.236 160.568 581.236 161.038 581.707L169.288 589.974C169.758 590.445 169.758 591.209 169.288 591.68C168.818 592.15 168.056 592.15 167.586 591.68L159.337 583.412C158.867 582.941 158.867 582.177 159.337 581.707Z" fill="white"/>
<path fill-rule="evenodd" clip-rule="evenodd" d="M235.011 569.123C235.011 568.457 235.549 567.917 236.214 567.917H262.683C263.347 567.917 263.886 568.457 263.886 569.123C263.886 569.789 263.347 570.329 262.683 570.329H236.214C235.549 570.329 235.011 569.789 235.011 569.123Z" fill="white"/>
<path fill-rule="evenodd" clip-rule="evenodd" d="M235.011 576.358C235.011 575.692 235.549 575.152 236.214 575.152H262.683C263.347 575.152 263.886 575.692 263.886 576.358C263.886 577.024 263.347 577.563 262.683 577.563H236.214C235.549 577.563 235.011 577.024 235.011 576.358Z" fill="white"/>
<path fill-rule="evenodd" clip-rule="evenodd" d="M235.011 583.592C235.011 582.926 235.549 582.387 236.214 582.387H262.683C263.347 582.387 263.886 582.926 263.886 583.592C263.886 584.258 263.347 584.798 262.683 584.798H236.214C235.549 584.798 235.011 584.258 235.011 583.592Z" fill="white"/>
<path fill-rule="evenodd" clip-rule="evenodd" d="M58.9265 81.1153C59.6313 81.8216 59.6313 82.9668 58.9265 83.6731L49.3745 93.2461L58.9265 102.819C59.6313 103.525 59.6313 104.671 58.9265 105.377C58.2217 106.083 57.0791 106.083 56.3743 105.377L45.5462 94.5251C44.8414 93.8187 44.8414 92.6736 45.5462 91.9672L56.3743 81.1153C57.0791 80.409 58.2217 80.409 58.9265 81.1153Z" fill="white"/>
<path fill-rule="evenodd" clip-rule="evenodd" d="M46.5215 93.2461C46.5215 92.2472 47.3295 91.4375 48.3262 91.4375H70.2832C71.2799 91.4375 72.0879 92.2472 72.0879 93.2461C72.0879 94.245 71.2799 95.0548 70.2832 95.0548H48.3262C47.3295 95.0548 46.5215 94.245 46.5215 93.2461Z" fill="white"/>
<path d="M101.062 93.2461C101.062 89.6945 103.935 86.8154 107.479 86.8154H200.521C204.065 86.8154 206.938 89.6945 206.938 93.2461C206.938 96.7978 204.065 99.6769 200.521 99.6769H107.479C103.935 99.6769 101.062 96.7978 101.062 93.2461Z" fill="#BFDBFE"/>
<path d="M39.3027 155.946C39.3027 153.282 41.4574 151.123 44.1152 151.123H111.49C114.148 151.123 116.303 153.282 116.303 155.946C116.303 158.61 114.148 160.769 111.49 160.769H44.1152C41.4574 160.769 39.3027 158.61 39.3027 155.946Z" fill="white"/>
<path d="M39.3027 178.454C39.3027 175.79 41.4574 173.631 44.1152 173.631H147.584C150.242 173.631 152.396 175.79 152.396 178.454C152.396 181.118 150.242 183.277 147.584 183.277H44.1152C41.4574 183.277 39.3027 181.118 39.3027 178.454Z" fill="white"/>
<path d="M129.136 155.946C129.136 153.282 131.29 151.123 133.948 151.123H214.157C216.814 151.123 218.969 153.282 218.969 155.946C218.969 158.61 216.814 160.769 214.157 160.769H133.948C131.29 160.769 129.136 158.61 129.136 155.946Z" fill="white"/>
<g clip-path="url(#clip0_31_7451)">
<rect x="39.3027" y="209" width="96.25" height="131.831" rx="20" fill="white"/>
<path d="M103.418 340.945C103.418 374.304 76.5921 401.347 43.5009 401.347C10.4097 401.347 -16.416 374.304 -16.416 340.945C-16.416 307.585 10.4097 280.542 43.5009 280.542C76.5921 280.542 103.418 307.585 103.418 340.945Z" fill="#FACC15"/>
<path d="M119.447 248.627C119.447 260.738 109.708 270.557 97.6937 270.557C85.6797 270.557 75.9404 260.738 75.9404 248.627C75.9404 236.516 85.6797 226.698 97.6937 226.698C109.708 226.698 119.447 236.516 119.447 248.627Z" fill="white"/>
<path fill-rule="evenodd" clip-rule="evenodd" d="M97.6937 268.145C108.365 268.145 117.041 259.42 117.041 248.627C117.041 237.834 108.365 229.109 97.6937 229.109C87.0219 229.109 78.3467 237.834 78.3467 248.627C78.3467 259.42 87.0219 268.145 97.6937 268.145ZM97.6937 270.557C109.708 270.557 119.447 260.738 119.447 248.627C119.447 236.516 109.708 226.698 97.6937 226.698C85.6797 226.698 75.9404 236.516 75.9404 248.627C75.9404 260.738 85.6797 270.557 97.6937 270.557Z" fill="#BFDBFE"/>
</g>
<rect x="148.386" y="209" width="96.25" height="131.831" rx="20" fill="white"/>
<path d="M231.44 244.395C231.44 250.344 226.575 255.167 220.573 255.167C214.571 255.167 209.706 250.344 209.706 244.395C209.706 238.446 214.571 233.623 220.573 233.623C226.575 233.623 231.44 238.446 231.44 244.395Z" fill="#FACC15"/>
<path d="M214.363 303.258C214.363 315.37 204.459 325.188 192.241 325.188C180.023 325.188 170.119 315.37 170.119 303.258C170.119 291.147 180.023 281.329 192.241 281.329C204.459 281.329 214.363 291.147 214.363 303.258Z" fill="#BFDBFE"/>
<path fill-rule="evenodd" clip-rule="evenodd" d="M192.241 322.776C203.155 322.776 211.957 314.013 211.957 303.258C211.957 292.504 203.155 283.74 192.241 283.74C181.328 283.74 172.525 292.504 172.525 303.258C172.525 314.013 181.328 322.776 192.241 322.776ZM192.241 325.188C204.459 325.188 214.363 315.37 214.363 303.258C214.363 291.147 204.459 281.329 192.241 281.329C180.023 281.329 170.119 291.147 170.119 303.258C170.119 315.37 180.023 325.188 192.241 325.188Z" fill="#BFDBFE"/>
<rect x="257.47" y="209" width="96.25" height="131.831" rx="20" fill="white"/>
<path d="M294.366 242.762L301.909 264.51L324.879 264.979L306.571 278.89L313.224 300.928L294.366 287.777L275.507 300.928L282.16 278.89L263.853 264.979L286.822 264.51L294.366 242.762Z" fill="white"/>
<path fill-rule="evenodd" clip-rule="evenodd" d="M301.909 264.51L294.366 242.762L286.822 264.51L263.853 264.979L282.16 278.89L275.507 300.928L294.366 287.777L313.224 300.928L306.571 278.89L324.879 264.979L301.909 264.51ZM317.909 267.249L300.186 266.887L294.366 250.106L288.545 266.887L270.823 267.249L284.948 277.982L279.815 294.986L294.366 284.839L308.916 294.986L303.783 277.982L317.909 267.249Z" fill="#FACC15"/>
</g>
<path fill-rule="evenodd" clip-rule="evenodd" d="M57.7503 2.41153H250.25C279.93 2.41153 303.99 26.5244 303.99 56.2692V570.731C303.99 600.475 279.93 624.588 250.25 624.588H57.7503C28.0708 624.588 4.01074 600.475 4.01074 570.731V56.2692C4.01074 26.5244 28.0708 2.41153 57.7503 2.41153ZM57.7503 12.0577C33.3865 12.0577 13.6357 31.8519 13.6357 56.2692V570.731C13.6357 595.148 33.3865 614.942 57.7503 614.942H250.25C274.614 614.942 294.365 595.148 294.365 570.731V56.2692C294.365 31.8519 274.614 12.0577 250.25 12.0577H57.7503Z" fill="#0F172A"/>
<path d="M111.489 45.0154C111.489 38.3561 116.876 32.9577 123.521 32.9577H183.677C190.321 32.9577 195.708 38.3561 195.708 45.0154V45.0154C195.708 51.6747 190.321 57.0731 183.677 57.0731H123.521C116.876 57.0731 111.489 51.6747 111.489 45.0154V45.0154Z" fill="#0F172A"/>
<path d="M115.5 597.66C115.5 596.994 116.039 596.454 116.703 596.454H191.297C191.961 596.454 192.5 596.994 192.5 597.66V597.66C192.5 598.326 191.961 598.865 191.297 598.865H116.703C116.039 598.865 115.5 598.326 115.5 597.66V597.66Z" fill="#0F172A"/>
<defs>
  <pattern id="pattern0" patternContentUnits="objectBoundingBox" width="1" height="1">
    <use xlink:href="#image0_31_7451" transform="matrix(0.00171394 0 0 0.000798085 -1.1111 0)"/>
  </pattern>
  <clipPath id="clip0_31_7451">
  <rect x="39.3027" y="209" width="96.25" height="131.831" rx="20" fill="white"/>
</clipPath>
</defs>
</svg>
