<svg width="550" height="161" viewBox="0 0 550 161" fill="none" xmlns="http://www.w3.org/2000/svg">
<g opacity="0.5" filter="url(#filter0_f_222_131)">
<g filter="url(#filter1_f_222_131)">
<ellipse cx="26.4886" cy="24.3917" rx="82.9386" ry="83.9831" transform="rotate(-51.9674 26.4886 24.3917)" fill="url(#paint0_radial_222_131)" fill-opacity="0.4"/>
</g>
<g filter="url(#filter2_f_222_131)">
<ellipse cx="144.361" cy="122.653" rx="35.5047" ry="170.694" transform="rotate(-135.822 144.361 122.653)" fill="url(#paint1_radial_222_131)" fill-opacity="0.08"/>
</g>
<path d="M-14.9116 109.799C69.9162 93.5615 104.72 19.0022 111.518 -16.2478C125.553 -74.1004 192.646 -109.67 147.001 36.2818C110.485 153.043 9.80019 171.113 -35.9779 165.553C-64.3007 153.734 -99.7394 126.036 -14.9116 109.799Z" fill="#FF65F0" fill-opacity="0.16"/>
<path d="M24.4557 141.587C110.588 135.212 153.734 65.1491 164.541 30.9147C185.135 -24.9403 255.873 -52.5585 193.748 87.1761C144.048 198.964 41.953 205.336 -2.88205 194.549C-29.6579 179.552 -61.6765 147.962 24.4557 141.587Z" fill="#8DCFFF" fill-opacity="0.17"/>
<g filter="url(#filter3_f_222_131)">
<path d="M272.793 -32.9755C361.045 -50.6622 439.867 -28.67 448.849 16.1452C453.442 39.0634 421.795 80.7519 380 87.0001C340.067 92.97 290 64 290 64C261.18 68.0954 268.899 122.198 249.5 132C204.954 154.509 152.019 134.608 145.762 103.388C136.781 58.5732 184.542 -15.2889 272.793 -32.9755Z" fill="url(#paint2_radial_222_131)" fill-opacity="0.6"/>
</g>
<g filter="url(#filter4_f_222_131)">
<ellipse cx="193.722" cy="125.098" rx="16.5192" ry="14.7636" transform="rotate(-101.333 193.722 125.098)" fill="url(#paint3_radial_222_131)"/>
</g>
</g>
<defs>
<filter id="filter0_f_222_131" x="-148.043" y="-146.543" width="677.336" height="474.114" filterUnits="userSpaceOnUse" color-interpolation-filters="sRGB">
<feFlood flood-opacity="0" result="BackgroundImageFix"/>
<feBlend mode="normal" in="SourceGraphic" in2="BackgroundImageFix" result="shape"/>
<feGaussianBlur stdDeviation="40" result="effect1_foregroundBlur_222_131"/>
</filter>
<filter id="filter1_f_222_131" x="-157.104" y="-158.948" width="367.184" height="366.68" filterUnits="userSpaceOnUse" color-interpolation-filters="sRGB">
<feFlood flood-opacity="0" result="BackgroundImageFix"/>
<feBlend mode="normal" in="SourceGraphic" in2="BackgroundImageFix" result="shape"/>
<feGaussianBlur stdDeviation="50" result="effect1_foregroundBlur_222_131"/>
</filter>
<filter id="filter2_f_222_131" x="-77.3134" y="-102.264" width="443.35" height="449.835" filterUnits="userSpaceOnUse" color-interpolation-filters="sRGB">
<feFlood flood-opacity="0" result="BackgroundImageFix"/>
<feBlend mode="normal" in="SourceGraphic" in2="BackgroundImageFix" result="shape"/>
<feGaussianBlur stdDeviation="50" result="effect1_foregroundBlur_222_131"/>
</filter>
<filter id="filter3_f_222_131" x="44.688" y="-139.09" width="504.604" height="380.737" filterUnits="userSpaceOnUse" color-interpolation-filters="sRGB">
<feFlood flood-opacity="0" result="BackgroundImageFix"/>
<feBlend mode="normal" in="SourceGraphic" in2="BackgroundImageFix" result="shape"/>
<feGaussianBlur stdDeviation="50" result="effect1_foregroundBlur_222_131"/>
</filter>
<filter id="filter4_f_222_131" x="161.883" y="91.6406" width="63.6769" height="66.9153" filterUnits="userSpaceOnUse" color-interpolation-filters="sRGB">
<feFlood flood-opacity="0" result="BackgroundImageFix"/>
<feBlend mode="normal" in="SourceGraphic" in2="BackgroundImageFix" result="shape"/>
<feGaussianBlur stdDeviation="8.5" result="effect1_foregroundBlur_222_131"/>
</filter>
<radialGradient id="paint0_radial_222_131" cx="0" cy="0" r="1" gradientUnits="userSpaceOnUse" gradientTransform="translate(26.4886 24.3917) rotate(90) scale(83.9831 82.9386)">
<stop stop-color="#6919FF"/>
<stop offset="1" stop-color="#6919FF"/>
</radialGradient>
<radialGradient id="paint1_radial_222_131" cx="0" cy="0" r="1" gradientUnits="userSpaceOnUse" gradientTransform="translate(144.361 122.653) rotate(90) scale(170.694 35.5047)">
<stop stop-color="#ED19FF"/>
<stop offset="0.2" stop-color="#ED19FF" stop-opacity="0.9"/>
<stop offset="1" stop-color="#6919FF"/>
</radialGradient>
<radialGradient id="paint2_radial_222_131" cx="0" cy="0" r="1" gradientUnits="userSpaceOnUse" gradientTransform="translate(289.056 48.1697) rotate(-11.3326) scale(162.971 82.7587)">
<stop stop-color="#1E519E"/>
<stop offset="1" stop-color="#1E519E" stop-opacity="0"/>
</radialGradient>
<radialGradient id="paint3_radial_222_131" cx="0" cy="0" r="1" gradientUnits="userSpaceOnUse" gradientTransform="translate(193.722 125.098) rotate(90) scale(14.7636 16.5192)">
<stop stop-color="white"/>
<stop offset="1" stop-color="white" stop-opacity="0"/>
</radialGradient>
</defs>
</svg>
