<svg width="75" height="75" viewBox="0 0 75 75" fill="none" xmlns="http://www.w3.org/2000/svg">
<path d="M67.6758 0H7.32421C3.2798 0 0 3.27978 0 7.32422V67.6756C0 71.7203 3.2798 75 7.32421 75H67.6758C71.7202 75 75 71.7203 75 67.6756V7.32422C75 3.27978 71.7202 0 67.6758 0ZM43.5058 41.6016H34.1307V68.4081H26.66V41.6016H17.2851V35.5956H43.5058V41.6016ZM67.6758 63.5887C67.0896 64.9072 66.079 65.8887 64.8923 66.665C63.7205 67.3828 62.4021 67.9394 60.7908 68.2763C59.1794 68.6134 57.5681 68.7744 55.8104 68.7744C54.0528 68.7744 52.2948 68.6278 50.6834 68.3203C49.0721 68.0128 47.622 67.5584 46.4356 66.9434V59.905C46.3432 59.8316 46.248 59.7597 46.1572 59.6838L46.4356 59.6191V59.905C47.6807 60.8934 49.0518 61.6553 50.5517 62.1737C52.0164 62.7306 53.6278 63.0088 55.2391 63.0088C56.2646 63.0088 57.0409 62.9209 57.7293 62.7597C58.4472 62.5841 59.0185 62.3497 59.4873 62.0566C59.9558 61.7638 60.3046 61.4122 60.5274 61.0019C60.7502 60.5919 60.8641 60.1525 60.8641 59.6838C60.8641 59.0097 60.6737 58.4238 60.3077 57.9259C59.9707 57.4278 59.4727 56.9591 58.8427 56.5341C58.2568 56.1094 57.5243 55.6994 56.6455 55.3038C55.7666 54.9081 54.8729 54.4981 53.8623 54.0878C51.3722 52.9159 49.4091 51.7441 48.1494 50.1328C46.8748 48.6678 46.2452 46.7637 46.2452 44.5662C46.2452 42.8084 46.5822 41.4022 47.2706 40.1719C48.0028 38.8534 48.8674 37.8869 50.0537 37.0956C51.2255 36.29 52.5439 35.7041 54.1553 35.3378C55.7666 34.9716 57.378 34.7812 59.1356 34.7812C60.8936 34.7812 62.3583 34.8838 63.6767 35.0887C64.9951 35.2941 66.2256 35.6162 67.3387 36.0409V42.9259C66.8261 42.545 66.2256 42.2081 65.581 41.915C64.8926 41.6222 64.2185 41.3878 63.5301 41.1972C62.8417 41.0069 62.1533 40.8647 61.4795 40.7725C60.8349 40.68 60.1903 40.6347 59.5752 40.6347C58.6815 40.6347 57.9197 40.7081 57.2313 40.8691C56.5283 41.0303 55.9425 41.25 55.4737 41.5431C55.0049 41.8359 54.6399 42.1728 54.3749 42.5831C54.1096 42.9931 53.9794 43.4472 53.9794 43.9453C53.9794 44.4872 54.1258 44.9706 54.4187 45.41C54.7116 45.835 55.122 46.245 55.6638 46.6406C56.1475 47.0216 56.8064 47.4025 57.5681 47.7831C58.4472 48.1641 59.2382 48.545 60.2049 48.9403C61.5233 49.4972 62.6951 50.1122 63.7205 50.6981C64.746 51.2841 65.6102 51.9728 66.3574 52.7491C67.1483 53.4816 67.7196 54.3603 68.115 55.3856C68.5105 56.4113 68.7155 57.5684 68.7155 58.9012C68.7155 60.8056 68.2617 62.2706 67.6758 63.5887Z" fill="#3178C6"/>
</svg>
