<svg width="59" height="75" viewBox="0 0 59 75" fill="none" xmlns="http://www.w3.org/2000/svg">
<path d="M74.5089 36.2903L38.5893 0.362903C38.1039 -0.120968 36.8904 -0.120968 36.1623 0.362903L26.2116 10.2823L35.4342 19.4758C36.1623 19.1129 37.0117 18.9919 37.8612 18.9919C41.259 18.9919 43.8073 21.7742 43.8073 24.9194C43.8073 25.7661 43.686 26.6129 43.3219 27.3387L50.7243 34.7177C51.4524 34.3548 52.3018 34.2339 53.1513 34.2339C56.5491 34.2339 59.0974 37.0161 59.0974 40.1613C59.0974 43.5484 56.3064 46.0887 53.1513 46.0887C49.7535 46.0887 47.2051 43.3064 47.2051 40.1613C47.2051 39.3145 47.3265 38.4677 47.6905 37.7419L40.2882 30.3629H40.1668V44.2742C42.3511 45.2419 43.9287 47.2984 43.9287 49.8387C43.9287 53.2258 41.1376 55.7661 37.9826 55.7661C34.5848 55.7661 32.0364 52.9839 32.0364 49.8387C32.0364 47.2984 33.614 45.121 35.7983 44.2742V30.7258C33.614 29.7581 32.0364 27.7016 32.0364 25.1613C32.0364 24.3145 32.1578 23.4677 32.5218 22.7419L23.2992 13.5484L0.36405 36.2903C-0.12135 36.7742 -0.12135 37.9839 0.36405 38.7097L36.405 74.6371C36.8904 75.121 38.1039 75.121 38.832 74.6371L74.7515 38.7097C75.1156 37.9839 75.1156 37.0161 74.5089 36.2903Z" fill="#F1502F"/>
</svg>
