<svg width="94" height="75" viewBox="0 0 94 75" fill="none" xmlns="http://www.w3.org/2000/svg">
<path fill-rule="evenodd" clip-rule="evenodd" d="M19.5241 0C14.1606 0 10.1918 4.70192 10.3695 9.801C10.5401 14.7 10.3185 21.0447 8.72382 26.2188C7.12341 31.4076 4.41871 34.6956 0 35.1176V39.8824C4.41871 40.3052 7.12341 43.592 8.72362 48.7812C10.3185 53.9552 10.5399 60.3 10.3693 65.1988C10.1917 70.2972 14.1604 75 19.5248 75H74.4827C79.8464 75 83.8143 70.298 83.6369 65.1988C83.4662 60.3 83.6878 53.9552 85.2825 48.7812C86.8828 43.592 89.581 40.304 94 39.8824V35.1176C89.581 34.6948 86.8832 31.4084 85.2825 26.2188C83.6874 21.0454 83.4662 14.7 83.6369 9.801C83.8143 4.70264 79.8464 0 74.4827 0H19.5241ZM63.7285 46.1676C63.7285 53.1888 58.5 57.4468 49.8223 57.4468H35.0507C34.6283 57.4468 34.2229 57.2788 33.9242 56.9796C33.6254 56.6804 33.4576 56.2744 33.4576 55.8512V19.149C33.4576 18.7258 33.6254 18.32 33.9242 18.0207C34.2229 17.7214 34.6283 17.5533 35.0507 17.5533H49.738C56.9737 17.5533 61.7225 21.4788 61.7225 27.5058C61.7225 31.736 58.5279 35.5232 54.4581 36.1868V36.4076C59.9985 37.016 63.7285 40.8592 63.7285 46.1676ZM48.2117 22.6118H39.789V34.5276H46.8827C52.367 34.5276 55.3905 32.3156 55.3905 28.3624C55.3901 24.6574 52.7906 22.6118 48.2117 22.6118ZM39.789 39.2552V52.3868H48.5216C54.2314 52.3868 57.2558 50.092 57.2558 45.7796C57.2558 41.4672 54.1467 39.2548 48.1544 39.2548L39.789 39.2552Z" fill="#712CF9"/>
</svg>
