<svg width="68" height="75" viewBox="0 0 68 75" fill="none" xmlns="http://www.w3.org/2000/svg">
<path d="M54.7509 22.5358H21.8293L22.6159 30.0476H53.9682C53.5084 36.6281 52.1182 50.5698 51.6082 56.9137L33.9985 61.7902V61.8048L33.9596 61.8232L16.3385 55.7235L15.1313 41.3156H23.7686L24.38 49.0642L33.9754 52.5836H33.9985L43.5785 49.2033L44.5638 37.5596H14.7458C14.6017 36.0536 12.748 16.4962 12.4248 15.0239H55.522C55.2806 17.5028 55.035 20.0494 54.7509 22.5358ZM3.81814 0C1.5741 0 -0.185968 1.89491 0.0157652 4.09361L5.65077 65.5095C5.79663 67.0991 6.94746 68.424 8.52045 68.8139L33.0189 74.8863C33.6362 75.0393 34.283 75.0378 34.8995 74.8822L59.4879 68.6823C61.0534 68.2874 62.1966 66.966 62.3424 65.3827L67.9841 4.09473C68.1866 1.89562 66.4262 0 64.1818 0H3.81814Z" fill="#E34C26"/>
</svg>
