<svg width="75" height="75" viewBox="0 0 75 75" fill="none" xmlns="http://www.w3.org/2000/svg">
<path d="M56.5734 0.466875C56.9261 0.639375 67.2422 5.55937 72.2803 7.96312C73.944 8.75625 75 10.4325 75 12.2737V62.6362C75 64.4756 73.9515 66.15 72.2934 66.9469C67.5142 69.2494 58.0177 73.8206 57.3856 74.1206C56.9204 74.3419 55.6975 75 54.7071 75C53.4354 75 52.582 74.4075 51.7436 73.6312L56.2433 59.4581V3.21563L52.0156 1.0875C52.9196 0.204375 54.1726 0 54.9135 0C55.5925 0 56.1458 0.25875 56.5734 0.466875Z" fill="url(#paint0_linear_212_483)"/>
<path d="M9.35163 56.055L56.2433 20.3869V3.43125C56.2433 0.995628 53.126 0.0412535 51.8599 1.21125C50.6313 2.34375 1.20748 47.3231 1.20748 47.3231C-0.48062 48.8794 -0.384961 51.5738 1.40818 53.0081C1.40818 53.0081 3.89156 55.3181 4.79001 55.9594C6.1705 56.9438 7.98427 57.0563 9.35163 56.055Z" fill="url(#paint1_linear_212_483)"/>
<path d="M9.35163 18.9449L56.2433 54.6712V71.1168C56.2433 73.3631 53.5799 75.2287 51.7436 73.6312L1.20748 27.6768C-0.48062 26.1206 -0.384961 23.4262 1.40818 21.9918C1.40818 21.9918 3.89156 19.6818 4.79001 19.0406C6.1705 18.0562 7.98427 17.9437 9.35163 18.9449Z" fill="#0288D1"/>
<defs>
<linearGradient id="paint0_linear_212_483" x1="63.3709" y1="73.8187" x2="63.3709" y2="6.4125" gradientUnits="userSpaceOnUse">
<stop stop-color="#29B6F6"/>
<stop offset="1" stop-color="#13B2F6"/>
</linearGradient>
<linearGradient id="paint1_linear_212_483" x1="3.88406" y1="57.7519" x2="57.7123" y2="5.93022" gradientUnits="userSpaceOnUse">
<stop offset="0.115" stop-color="#0076BB"/>
<stop offset="0.257" stop-color="#0069B0"/>
<stop offset="0.28" stop-color="#0069B0"/>
<stop offset="0.424" stop-color="#0069B0"/>
<stop offset="0.491" stop-color="#0072B7"/>
<stop offset="0.577" stop-color="#0076BB"/>
<stop offset="0.795" stop-color="#0076BB"/>
<stop offset="1" stop-color="#006EB9"/>
</linearGradient>
</defs>
</svg>
