<svg width="68" height="75" viewBox="0 0 68 75" fill="none" xmlns="http://www.w3.org/2000/svg">
<path d="M34.9596 74.8687C34.3038 75.0438 33.6125 75.0438 32.957 74.8683L8.45163 68.3103C6.91256 67.8986 5.79584 66.5887 5.65127 65.0257L0.0160214 4.09728C-0.18745 1.89712 1.57311 0 3.81844 0H64.1815C66.4271 0 68.1879 1.89739 67.9839 4.0977L62.3433 65.0148C62.1986 66.5778 61.0811 67.8877 59.5417 68.2991L34.9596 74.8687ZM13.9756 30.6105L14.7466 38.9044H44.5654L43.5666 49.6612L33.9702 52.158L33.9627 52.1606L24.3806 49.6665L23.768 43.0515H15.131L16.3363 56.0745L33.9608 60.7905L34.0005 60.7803L51.6087 56.0745L53.7602 32.8376L53.9702 30.6105L55.5232 13.8234H12.426L13.208 22.1174H46.0943L45.3111 30.6105H13.9756Z" fill="#264DE4"/>
</svg>
