<svg width="80" height="49" viewBox="0 0 80 49" fill="none" xmlns="http://www.w3.org/2000/svg">
<path fill-rule="evenodd" clip-rule="evenodd" d="M20.0001 16.5C22.6663 5.83372 29.3338 0.5 40.0001 0.5C56.0002 0.5 58 12.5 66.0001 14.5C71.3337 15.8337 76 13.8337 80 8.5C77.3336 19.1663 70.6664 24.5 59.9999 24.5C44.0001 24.5 41.9999 12.5 33.9999 10.5C28.6663 9.16628 24 11.1663 20.0001 16.5ZM0 40.5C2.66623 29.8337 9.33375 24.5 20.0001 24.5C36.0001 24.5 38.0003 36.5 46 38.5C51.3339 39.8337 56.0002 37.8337 59.9999 32.5C57.3338 43.1663 50.6662 48.5 40.0001 48.5C24 48.5 22 36.5 14.0001 34.5C8.66623 33.1663 3.99999 35.1663 0 40.5Z" fill="#0EA5E9"/>
</svg>
