<svg width="75" height="75" viewBox="0 0 75 75" fill="none" xmlns="http://www.w3.org/2000/svg">
<path d="M37.5 0C16.7921 0 0 17.2141 0 38.4492C0 55.4374 10.7449 69.8498 25.645 74.9341C27.519 75.2899 28.2072 74.1 28.2072 73.0842C28.2072 72.1677 28.1722 69.1384 28.1563 65.9258C17.7235 68.2515 15.5221 61.389 15.5221 61.389C13.8163 56.9449 11.3584 55.7637 11.3584 55.7637C7.95619 53.3772 11.6149 53.4259 11.6149 53.4259C15.3806 53.6974 17.3635 57.3882 17.3635 57.3882C20.7081 63.2663 26.1362 61.5668 28.2761 60.5847C28.6125 58.0992 29.5845 56.4034 30.657 55.4434C22.3277 54.4707 13.5716 51.174 13.5716 36.4414C13.5716 32.2436 15.0365 28.8135 17.4355 26.121C17.0461 25.1524 15.7627 21.2419 17.7988 15.9457C17.7988 15.9457 20.9478 14.9123 28.114 19.887C31.1051 19.0348 34.3133 18.6079 37.5 18.5934C40.6871 18.6079 43.8975 19.0348 46.8945 19.887C54.0521 14.9123 57.1969 15.9457 57.1969 15.9457C59.238 21.2419 57.954 25.1524 57.5644 26.121C59.9689 28.8135 61.4239 32.2433 61.4239 36.4414C61.4239 51.2089 52.6511 54.4609 44.3006 55.4127C45.6458 56.6055 46.8443 58.9459 46.8443 62.5328C46.8443 67.677 46.8007 71.8178 46.8007 73.0842C46.8007 74.1075 47.4757 75.3064 49.3766 74.9288C64.2686 69.8389 75 55.4318 75 38.4492C75 17.2141 58.2101 0 37.5 0Z" fill="#FCFCFC"/>
</svg>
