<svg width="75" height="75" viewBox="0 0 75 75" fill="none" xmlns="http://www.w3.org/2000/svg">
<path d="M0 0V75H75V0H0ZM40.8871 58.4274C40.8871 65.8064 36.5323 69.1936 30.2419 69.1936C24.6774 69.1936 21.4113 66.2903 19.7177 62.6613L25.5242 59.0323C26.4919 61.0887 27.5806 62.6613 30.121 62.6613C32.5403 62.6613 33.871 61.8145 33.871 58.1855V34.4758H40.8871V58.4274ZM57.5806 69.1936C51.0484 69.1936 46.8145 65.9274 44.6371 62.0564L50.4436 58.6694C52.0161 61.0887 54.0726 62.9032 57.4597 62.9032C60.3629 62.9032 62.1774 61.5726 62.1774 59.2742C62.1774 56.8548 60.3629 56.0081 57.0968 54.5565L55.4032 53.8306C50.3226 51.7742 46.9355 48.871 46.9355 43.0645C46.9355 37.7419 50.8064 33.871 57.2177 33.871C61.6935 33.871 64.8387 35.4435 67.1371 39.5564L61.6936 43.1855C60.4839 41.129 59.2742 40.1613 57.0968 40.1613C55.0403 40.1613 53.7097 41.4919 53.7097 43.1855C53.7097 45.2419 55.0403 46.0887 57.9435 47.4194L59.6371 48.1452C65.5645 50.6855 69.0726 53.2258 69.0726 59.2742C69.1936 65.6855 64.2339 69.1936 57.5806 69.1936Z" fill="#F0DB4F"/>
</svg>
